HIERARCHY
ROOT hip
{
	OFFSET 0.000000 0.000000 0.000000 
	CHANNELS 6 Xposition Yposition Zposition Xrotation Zrotation Yrotation
	JOINT abdomen
	{
		OFFSET 0.000000 3.402643 0.000000 
		CHANNELS 3 Xrotation Zrotation Yrotation
		JOINT chest
		{
			OFFSET 0.000000 8.438565 -0.680529 
			CHANNELS 3 Xrotation Zrotation Yrotation
			JOINT neck
			{
				OFFSET 0.000000 10.207942 -0.272212 
				CHANNELS 3 Xrotation Zrotation Yrotation
				JOINT head
				{
					OFFSET 0.000000 3.130431 0.000000 
					CHANNELS 3 Xrotation Zrotation Yrotation
					End Site
					{
						OFFSET 0.000000 3.130435 0.000000 
					}
				}
			}
			JOINT lCollar
			{
				OFFSET 3.470700 6.669187 -0.816635 
				CHANNELS 3 Yrotation Zrotation Xrotation
				JOINT lShldr
				{
					OFFSET 3.198488 0.000000 0.000000 
					CHANNELS 3 Zrotation Yrotation Xrotation
					JOINT lForeArm
					{
						OFFSET 10.139888 0.000000 0.000000 
						CHANNELS 3 Yrotation Zrotation Xrotation
						JOINT lHand
						{
							OFFSET 8.370511 0.000000 0.000000 
							CHANNELS 3 Zrotation Yrotation Xrotation
							End Site
							{
								OFFSET 4.083176 0.000000 0.000000 
							}
						}
					}
				}
			}
			JOINT rCollar
			{
				OFFSET -3.470700 6.669187 -0.816635 
				CHANNELS 3 Yrotation Zrotation Xrotation
				JOINT rShldr
				{
					OFFSET -3.198488 0.000000 0.000000 
					CHANNELS 3 Zrotation Yrotation Xrotation
					JOINT rForeArm
					{
						OFFSET -10.139888 0.000000 0.000000 
						CHANNELS 3 Yrotation Zrotation Xrotation
						JOINT rHand
						{
							OFFSET -8.370511 0.000000 0.000000 
							CHANNELS 3 Zrotation Yrotation Xrotation
							End Site
							{
								OFFSET -4.083176 0.000000 0.000000 
							}
						}
					}
				}
			}
		}
	}
	JOINT lThigh
	{
		OFFSET 5.308129 -1.633274 1.361059 
		CHANNELS 3 Xrotation Zrotation Yrotation
		JOINT lShin
		{
			OFFSET -2.041588 -20.007561 0.000000 
			CHANNELS 3 Xrotation Zrotation Yrotation
			JOINT lFoot
			{
				OFFSET 0.000000 -19.190928 -1.224953 
				CHANNELS 3 Xrotation Yrotation Zrotation
				End Site
				{
					OFFSET 0.000000 -2.449906 4.627600 
				}
			}
		}
	}
	JOINT rThigh
	{
		OFFSET -5.308129 -1.633274 1.361059 
		CHANNELS 3 Xrotation Zrotation Yrotation
		JOINT rShin
		{
			OFFSET 2.041588 -20.007561 0.000000 
			CHANNELS 3 Xrotation Zrotation Yrotation
			JOINT rFoot
			{
				OFFSET 0.000000 -19.190928 -1.224953 
				CHANNELS 3 Xrotation Yrotation Zrotation
				End Site
				{
					OFFSET 0.000000 -2.449906 4.627600 
				}
			}
		}
	}
}
MOTION
Frames: 8
Frame Time: 0.011111
0.965343 52.989510 -39.496326 2.334017 0.595860 -7.384135 19.946585 -2.111064 0.443028 -20.684502 -0.677330 0.202341 -13.777519 -10.031541 -3.724849 20.594584 15.961761 -7.932348 2.424333 -4.683778 1.783845 -71.958267 -32.017574 2.472197 -43.197506 5.823417 5.530229 8.524705 12.647240 -54.280655 -2.738486 -1.140572 2.095526 73.390984 25.440510 26.041359 48.434967 -7.332994 7.538651 -8.534408 -12.637552 25.931498 4.012455 6.579981 -5.469111 12.030592 -5.959682 -2.407865 -24.660826 13.308072 2.898651 -1.043401 -7.006194 19.343687 15.901464 5.883115 2.944828 -22.726519 -12.651071 -2.070609 
0.964139 52.983795 -39.490009 2.334047 0.664162 -7.381340 19.918331 -2.215616 0.449297 -20.791975 -0.647409 0.212614 -13.613636 -10.123865 -3.722675 20.540737 16.114103 -7.900719 2.424333 -4.683778 1.783845 -71.954025 -31.841829 2.638222 -43.258892 5.844060 5.554834 8.524705 12.647240 -54.143932 -2.738486 -1.140572 2.095526 73.366730 25.274969 26.036486 48.455280 -7.336015 7.549008 -8.534408 -12.637552 25.921734 4.003306 6.502374 -5.427015 12.048816 -5.966479 -2.419964 -24.653515 13.261653 2.855034 -1.052729 -7.073980 19.281698 15.987288 5.875973 2.951960 -22.806704 -12.596279 -2.068511 
0.963538 52.980190 -39.487003 2.363311 0.666316 -7.341970 19.859541 -2.190668 0.439676 -20.821276 -0.647559 0.203183 -13.508940 -10.217492 -3.701096 20.437351 16.226370 -7.862347 2.424333 -4.683778 1.783845 -71.951912 -31.753960 2.720972 -43.309856 5.858745 5.571531 8.524705 12.647240 -54.065807 -2.738486 -1.140572 2.095526 73.323921 25.158672 26.064421 48.590504 -7.369222 7.596840 -8.534408 -12.637552 25.677593 3.911667 6.495400 -5.386063 12.157412 -5.967007 -2.429714 -24.633831 13.198704 2.856411 -1.024777 -7.089018 19.212536 15.956548 5.875434 2.938533 -22.788458 -12.564008 -2.056641 
0.961433 52.980484 -39.475574 2.401932 0.633098 -7.362780 19.800497 -2.150808 0.444721 -20.772444 -0.647731 0.202631 -13.560102 -10.258316 -3.681948 20.416439 16.234543 -7.865179 2.424333 -4.683778 1.783845 -71.952850 -31.793011 2.662374 -43.258892 5.844060 5.554834 8.524705 12.647240 -54.104870 -2.738486 -1.140572 2.095526 73.304321 25.168865 25.995384 48.747017 -7.411446 7.662582 -8.534408 -12.637552 25.042826 3.876864 6.531583 -5.431944 12.190870 -5.964678 -2.442837 -24.671244 13.266297 2.872390 -1.052656 -7.044084 19.263178 15.966620 5.875560 2.949156 -22.804401 -12.579522 -2.058210 
0.962335 52.979893 -39.461441 2.392018 0.594448 -7.403546 19.770430 -2.121012 0.508400 -20.743067 -0.696403 0.213285 -13.527507 -10.190149 -3.703784 20.295652 16.195196 -7.896407 2.424333 -4.683778 1.783845 -71.904594 -31.852457 2.519822 -43.177353 5.818695 5.521006 8.524705 12.647240 -54.251354 -2.738486 -1.140572 2.095526 73.364418 25.187107 25.831408 48.809128 -7.425992 7.692652 -8.534408 -12.637552 24.671734 3.885917 6.561088 -5.478619 12.243550 -5.968692 -2.437835 -24.831223 13.261615 2.937077 -1.005334 -7.010015 19.255487 15.935514 5.875216 2.946486 -22.788898 -12.517012 -2.038180 
0.960832 52.979290 -39.454224 2.382451 0.621649 -7.382915 19.780638 -2.151417 0.476671 -20.752848 -0.686604 0.213158 -13.516631 -10.168345 -3.700796 20.266582 16.175428 -7.878337 2.424333 -4.683778 1.783845 -71.914764 -31.862047 2.451704 -43.156288 5.807446 5.514885 8.524705 12.647240 -54.300182 -2.738486 -1.140572 2.095526 73.374855 25.206415 25.831749 48.767334 -7.414360 7.672999 -8.534408 -12.637552 24.691267 3.894704 6.519289 -5.531915 12.267520 -5.963970 -2.440120 -24.905035 13.242588 2.947602 -0.975276 -7.046337 19.244762 15.932478 5.883744 2.947537 -22.876644 -12.510642 -2.068224 
0.958124 52.981689 -39.451519 2.372766 0.620395 -7.383020 19.800318 -2.157361 0.463560 -20.772398 -0.677019 0.203380 -13.525552 -10.147683 -3.693770 20.244213 16.123665 -7.887953 2.424333 -4.683778 1.783845 -71.912415 -31.764416 2.602814 -43.258892 5.844060 5.554834 8.524705 12.647240 -54.124405 -2.738486 -1.140572 2.095526 73.365440 25.226158 25.909533 48.767532 -7.413751 7.663255 -8.534408 -12.637552 24.788919 3.894684 6.519329 -5.581267 12.281788 -5.956183 -2.450002 -24.923510 13.275096 2.960563 -0.965330 -7.035629 19.245386 15.901463 5.883112 2.944828 -22.933308 -12.529076 -2.087892 
0.957523 52.979893 -39.447910 2.401773 0.634325 -7.392052 19.790577 -2.169851 0.469989 -20.752848 -0.686604 0.213158 -13.634606 -10.156192 -3.681092 20.317934 16.157112 -7.852550 2.424333 -4.683778 1.783845 -71.872673 -31.765102 2.719032 -43.340664 5.868715 5.579999 8.524705 12.647240 -54.036510 -2.738486 -1.140572 2.095526 73.377182 25.294285 25.958702 48.757648 -7.416122 7.671432 -8.534408 -12.637552 24.837748 3.863061 6.505682 -5.680394 12.281784 -5.956192 -2.450003 -24.969078 13.366347 3.003367 -1.005523 -7.050226 19.293289 15.901464 5.883112 2.944828 -22.892277 -12.569366 -2.097242 
